<svg width="12" height="12" viewBox="0 0 12 12" fill="none" xmlns="http://www.w3.org/2000/svg">
<path fill-rule="evenodd" clip-rule="evenodd" d="M3.22625 0.166626H8.77375C9.44983 0.166626 9.78758 0.166626 10.0606 0.261709C10.318 0.352936 10.5509 0.502284 10.7412 0.698149C10.9315 0.894014 11.0741 1.13112 11.1578 1.39104C11.25 1.67221 11.25 2.01988 11.25 2.71579V10.8848C11.25 11.3853 10.6754 11.6513 10.312 11.3188C10.21 11.2246 10.0763 11.1723 9.9375 11.1723C9.79868 11.1723 9.66496 11.2246 9.563 11.3188L9.28125 11.5766C9.10263 11.7418 8.86829 11.8335 8.625 11.8335C8.38171 11.8335 8.14737 11.7418 7.96875 11.5766C7.79013 11.4114 7.55579 11.3197 7.3125 11.3197C7.06921 11.3197 6.83487 11.4114 6.65625 11.5766C6.47763 11.7418 6.24329 11.8335 6 11.8335C5.75671 11.8335 5.52237 11.7418 5.34375 11.5766C5.16513 11.4114 4.93079 11.3197 4.6875 11.3197C4.44421 11.3197 4.20987 11.4114 4.03125 11.5766C3.85263 11.7418 3.61829 11.8335 3.375 11.8335C3.13171 11.8335 2.89737 11.7418 2.71875 11.5766L2.437 11.3188C2.33504 11.2246 2.20132 11.1723 2.0625 11.1723C1.92368 11.1723 1.78996 11.2246 1.688 11.3188C1.32458 11.6513 0.75 11.3853 0.75 10.8848V2.71579C0.75 2.01988 0.75 1.67163 0.842167 1.39163C1.01717 0.859043 1.42258 0.441376 1.93942 0.261709C2.21242 0.166626 2.55017 0.166626 3.22625 0.166626ZM3.08333 2.93746C2.9673 2.93746 2.85602 2.98355 2.77397 3.0656C2.69193 3.14765 2.64583 3.25893 2.64583 3.37496C2.64583 3.49099 2.69193 3.60227 2.77397 3.68432C2.85602 3.76637 2.9673 3.81246 3.08333 3.81246H3.375C3.49103 3.81246 3.60231 3.76637 3.68436 3.68432C3.76641 3.60227 3.8125 3.49099 3.8125 3.37496C3.8125 3.25893 3.76641 3.14765 3.68436 3.0656C3.60231 2.98355 3.49103 2.93746 3.375 2.93746H3.08333ZM5.125 2.93746C5.00897 2.93746 4.89769 2.98355 4.81564 3.0656C4.73359 3.14765 4.6875 3.25893 4.6875 3.37496C4.6875 3.49099 4.73359 3.60227 4.81564 3.68432C4.89769 3.76637 5.00897 3.81246 5.125 3.81246H8.91667C9.0327 3.81246 9.14398 3.76637 9.22603 3.68432C9.30807 3.60227 9.35417 3.49099 9.35417 3.37496C9.35417 3.25893 9.30807 3.14765 9.22603 3.0656C9.14398 2.98355 9.0327 2.93746 8.91667 2.93746H5.125ZM3.08333 4.97913C2.9673 4.97913 2.85602 5.02522 2.77397 5.10727C2.69193 5.18931 2.64583 5.30059 2.64583 5.41663C2.64583 5.53266 2.69193 5.64394 2.77397 5.72598C2.85602 5.80803 2.9673 5.85413 3.08333 5.85413H3.375C3.49103 5.85413 3.60231 5.80803 3.68436 5.72598C3.76641 5.64394 3.8125 5.53266 3.8125 5.41663C3.8125 5.30059 3.76641 5.18931 3.68436 5.10727C3.60231 5.02522 3.49103 4.97913 3.375 4.97913H3.08333ZM5.125 4.97913C5.00897 4.97913 4.89769 5.02522 4.81564 5.10727C4.73359 5.18931 4.6875 5.30059 4.6875 5.41663C4.6875 5.53266 4.73359 5.64394 4.81564 5.72598C4.89769 5.80803 5.00897 5.85413 5.125 5.85413H8.91667C9.0327 5.85413 9.14398 5.80803 9.22603 5.72598C9.30807 5.64394 9.35417 5.53266 9.35417 5.41663C9.35417 5.30059 9.30807 5.18931 9.22603 5.10727C9.14398 5.02522 9.0327 4.97913 8.91667 4.97913H5.125ZM3.08333 7.02079C2.9673 7.02079 2.85602 7.06689 2.77397 7.14893C2.69193 7.23098 2.64583 7.34226 2.64583 7.45829C2.64583 7.57432 2.69193 7.6856 2.77397 7.76765C2.85602 7.8497 2.9673 7.89579 3.08333 7.89579H3.375C3.49103 7.89579 3.60231 7.8497 3.68436 7.76765C3.76641 7.6856 3.8125 7.57432 3.8125 7.45829C3.8125 7.34226 3.76641 7.23098 3.68436 7.14893C3.60231 7.06689 3.49103 7.02079 3.375 7.02079H3.08333ZM5.125 7.02079C5.00897 7.02079 4.89769 7.06689 4.81564 7.14893C4.73359 7.23098 4.6875 7.34226 4.6875 7.45829C4.6875 7.57432 4.73359 7.6856 4.81564 7.76765C4.89769 7.8497 5.00897 7.89579 5.125 7.89579H8.91667C9.0327 7.89579 9.14398 7.8497 9.22603 7.76765C9.30807 7.6856 9.35417 7.57432 9.35417 7.45829C9.35417 7.34226 9.30807 7.23098 9.22603 7.14893C9.14398 7.06689 9.0327 7.02079 8.91667 7.02079H5.125Z" fill="#555555"/>
</svg>
