<svg width="21" height="21" viewBox="0 0 21 21" fill="none" xmlns="http://www.w3.org/2000/svg">
<path fill-rule="evenodd" clip-rule="evenodd" d="M17.7917 6.71771V8.20833C17.7917 10.7615 17.7917 12.0385 16.9375 12.8312C16.0833 13.625 14.7083 13.625 11.9583 13.625H11.2812V16.75C11.2813 16.7989 11.2768 16.8477 11.2677 16.8958C11.7958 17.1052 12.2187 17.525 12.4323 18.0521H20.1354C20.3426 18.0521 20.5413 18.1344 20.6878 18.2809C20.8344 18.4274 20.9167 18.6261 20.9167 18.8333C20.9167 19.0405 20.8344 19.2392 20.6878 19.3858C20.5413 19.5323 20.3426 19.6146 20.1354 19.6146H12.4323C12.277 19.9999 12.01 20.33 11.6657 20.5625C11.3214 20.7949 10.9154 20.9191 10.5 20.9191C10.0846 20.9191 9.6786 20.7949 9.33428 20.5625C8.98996 20.33 8.72301 19.9999 8.5677 19.6146H0.864578C0.657378 19.6146 0.458664 19.5323 0.312151 19.3858C0.165638 19.2392 0.0833282 19.0405 0.0833282 18.8333C0.0833282 18.6261 0.165638 18.4274 0.312151 18.2809C0.458664 18.1344 0.657378 18.0521 0.864578 18.0521H8.5677C8.78125 17.525 9.20312 17.1052 9.73229 16.8958C9.72323 16.8477 9.71869 16.7989 9.71874 16.75V13.625H9.04166C6.29166 13.625 4.91666 13.625 4.06249 12.8323C3.20833 12.0375 3.20833 10.7604 3.20833 8.20833V3.43437C3.20833 2.8375 3.20833 2.53854 3.25937 2.28958C3.48124 1.19375 4.4052 0.337499 5.58437 0.130207C5.85208 0.0833321 6.17395 0.0833321 6.8177 0.0833321C7.09895 0.0833321 7.24062 0.083332 7.37604 0.0947903C7.95937 0.145832 8.51458 0.359374 8.96562 0.706249C9.06979 0.787499 9.16979 0.880207 9.36979 1.06458L9.77083 1.4375C10.3656 1.98958 10.6635 2.26562 11.0187 2.45C11.2146 2.55104 11.4229 2.63125 11.6375 2.6875C12.0302 2.79167 12.45 2.79167 13.2917 2.79167H13.5635C15.4833 2.79167 16.4427 2.79167 17.0667 3.3125C17.124 3.36042 17.1792 3.41146 17.2302 3.46458C17.7917 4.04375 17.7917 4.93542 17.7917 6.71771ZM11.2812 5.8125C11.2812 5.6053 11.3636 5.40658 11.5101 5.26007C11.6566 5.11356 11.8553 5.03125 12.0625 5.03125H15.1875C15.3947 5.03125 15.5934 5.11356 15.7399 5.26007C15.8864 5.40658 15.9687 5.6053 15.9687 5.8125C15.9687 6.0197 15.8864 6.21841 15.7399 6.36493C15.5934 6.51144 15.3947 6.59375 15.1875 6.59375H12.0625C11.8553 6.59375 11.6566 6.51144 11.5101 6.36493C11.3636 6.21841 11.2812 6.0197 11.2812 5.8125Z" fill="#555555"/>
</svg>
