<svg width="14" height="12" viewBox="0 0 14 12" fill="none" xmlns="http://www.w3.org/2000/svg">
<path fill-rule="evenodd" clip-rule="evenodd" d="M0.723674 0.390667C0.333008 0.781333 0.333008 1.40933 0.333008 2.66667C0.333008 3.924 0.333008 4.552 0.723674 4.94267C1.11434 5.33333 1.74234 5.33333 2.99967 5.33333H10.9997C12.257 5.33333 12.885 5.33333 13.2757 4.94267C13.6663 4.552 13.6663 3.924 13.6663 2.66667C13.6663 1.40933 13.6663 0.781333 13.2757 0.390667C12.885 -3.97364e-08 12.257 0 10.9997 0H2.99967C1.74234 0 1.11434 -3.97364e-08 0.723674 0.390667ZM4.99967 3.83333C4.86707 3.83333 4.73989 3.78065 4.64612 3.68689C4.55235 3.59312 4.49967 3.46594 4.49967 3.33333V2C4.49967 1.86739 4.55235 1.74021 4.64612 1.64645C4.73989 1.55268 4.86707 1.5 4.99967 1.5C5.13228 1.5 5.25946 1.55268 5.35323 1.64645C5.447 1.74021 5.49967 1.86739 5.49967 2V3.33333C5.49967 3.46594 5.447 3.59312 5.35323 3.68689C5.25946 3.78065 5.13228 3.83333 4.99967 3.83333ZM7.99967 2.16667C7.86707 2.16667 7.73989 2.21935 7.64612 2.31311C7.55235 2.40688 7.49967 2.53406 7.49967 2.66667C7.49967 2.79927 7.55235 2.92645 7.64612 3.02022C7.73989 3.11399 7.86707 3.16667 7.99967 3.16667H10.9997C11.1323 3.16667 11.2595 3.11399 11.3532 3.02022C11.447 2.92645 11.4997 2.79927 11.4997 2.66667C11.4997 2.53406 11.447 2.40688 11.3532 2.31311C11.2595 2.21935 11.1323 2.16667 10.9997 2.16667H7.99967ZM2.99967 3.83333C2.86707 3.83333 2.73989 3.78065 2.64612 3.68689C2.55235 3.59312 2.49967 3.46594 2.49967 3.33333V2C2.49967 1.86739 2.55235 1.74021 2.64612 1.64645C2.73989 1.55268 2.86707 1.5 2.99967 1.5C3.13228 1.5 3.25946 1.55268 3.35323 1.64645C3.447 1.74021 3.49967 1.86739 3.49967 2V3.33333C3.49967 3.46594 3.447 3.59312 3.35323 3.68689C3.25946 3.78065 3.13228 3.83333 2.99967 3.83333ZM0.723674 7.05733C0.333008 7.448 0.333008 8.076 0.333008 9.33333C0.333008 10.5907 0.333008 11.2187 0.723674 11.6093C1.11434 12 1.74234 12 2.99967 12H10.9997C12.257 12 12.885 12 13.2757 11.6093C13.6663 11.2187 13.6663 10.5907 13.6663 9.33333C13.6663 8.076 13.6663 7.448 13.2757 7.05733C12.885 6.66667 12.257 6.66667 10.9997 6.66667H2.99967C1.74234 6.66667 1.11434 6.66667 0.723674 7.05733ZM7.49967 9.33333C7.49967 9.20073 7.55235 9.07355 7.64612 8.97978C7.73989 8.88601 7.86707 8.83333 7.99967 8.83333H10.9997C11.1323 8.83333 11.2595 8.88601 11.3532 8.97978C11.447 9.07355 11.4997 9.20073 11.4997 9.33333C11.4997 9.46594 11.447 9.59312 11.3532 9.68689C11.2595 9.78066 11.1323 9.83333 10.9997 9.83333H7.99967C7.86707 9.83333 7.73989 9.78066 7.64612 9.68689C7.55235 9.59312 7.49967 9.46594 7.49967 9.33333ZM2.49967 10C2.49967 10.1326 2.55235 10.2598 2.64612 10.3536C2.73989 10.4473 2.86707 10.5 2.99967 10.5C3.13228 10.5 3.25946 10.4473 3.35323 10.3536C3.447 10.2598 3.49967 10.1326 3.49967 10V8.66667C3.49967 8.53406 3.447 8.40688 3.35323 8.31311C3.25946 8.21935 3.13228 8.16667 2.99967 8.16667C2.86707 8.16667 2.73989 8.21935 2.64612 8.31311C2.55235 8.40688 2.49967 8.53406 2.49967 8.66667V10ZM4.99967 10.5C4.86707 10.5 4.73989 10.4473 4.64612 10.3536C4.55235 10.2598 4.49967 10.1326 4.49967 10V8.66667C4.49967 8.53406 4.55235 8.40688 4.64612 8.31311C4.73989 8.21935 4.86707 8.16667 4.99967 8.16667C5.13228 8.16667 5.25946 8.21935 5.35323 8.31311C5.447 8.40688 5.49967 8.53406 5.49967 8.66667V10C5.49967 10.1326 5.447 10.2598 5.35323 10.3536C5.25946 10.4473 5.13228 10.5 4.99967 10.5Z" fill="#555555"/>
</svg>
