<svg width="21" height="21" viewBox="0 0 21 21" fill="none" xmlns="http://www.w3.org/2000/svg">
<path fill-rule="evenodd" clip-rule="evenodd" d="M1.30415 1.2625C0.0833129 2.48229 0.083313 4.44688 0.083313 8.375V12.5417C0.083313 16.4698 0.0833129 18.4344 1.30415 19.6542C2.52394 20.875 4.48852 20.875 8.41665 20.875H12.5833C16.5114 20.875 18.476 20.875 19.6958 19.6542C20.9166 18.4344 20.9166 16.4698 20.9166 12.5417V8.375C20.9166 4.44688 20.9166 2.48229 19.6958 1.2625C18.476 0.0416678 16.5114 0.0416679 12.5833 0.0416679H8.41665C4.48852 0.0416679 2.52394 0.0416678 1.30415 1.2625ZM11.0281 15.3771L11.0208 15.3813V6.58646L11.0437 6.57292C11.6198 6.23958 12.551 5.74375 13.3125 5.53125C13.875 5.37604 14.6041 5.30417 15.2469 5.27292C16.0854 5.23125 16.75 5.92188 16.75 6.7625V12.449C16.75 13.3167 16.0416 14.0156 15.1771 14.0802C14.65 14.1198 14.0812 14.1854 13.625 14.2969C12.7531 14.5104 11.6635 15.0427 11.0281 15.3771ZM4.24998 6.80833V12.449C4.24998 13.3167 4.95831 14.0156 5.8229 14.0802C6.34998 14.1198 6.91873 14.1854 7.37498 14.2969C8.24685 14.5104 9.33644 15.0427 9.97185 15.3771L9.97915 15.3813V6.61563C9.96688 6.60961 9.95472 6.60335 9.94269 6.59688C9.30206 6.26146 8.23331 5.74271 7.37498 5.53229C6.91248 5.41875 6.33331 5.35208 5.79894 5.31354C4.94269 5.25 4.24998 5.95104 4.24998 6.80833Z" fill="#555555"/>
</svg>
