<svg width="16" height="17" viewBox="0 0 23 19" fill="none" xmlns="http://www.w3.org/2000/svg">
<path fill-rule="evenodd" clip-rule="evenodd" d="M0.0416718 18.0833C0.0416718 17.6458 0.400005 17.2917 0.84063 17.2917H22.1594C22.6 17.2917 22.9583 17.6458 22.9583 18.0833C22.9583 18.5208 22.6 18.875 22.1594 18.875H0.84063C0.629741 18.8758 0.427145 18.7929 0.277341 18.6445C0.127536 18.496 0.0427743 18.2942 0.0416718 18.0833ZM2.84376 1.05208C1.90626 1.97917 1.90626 3.47292 1.90626 6.45833V11.7365C1.90626 13.726 1.90626 14.7219 2.53126 15.3406C3.15626 15.9583 4.16042 15.9583 6.17084 15.9583H16.8292C18.8396 15.9583 19.8448 15.9583 20.4688 15.3396C21.0938 14.7219 21.0938 13.726 21.0938 11.7354V6.45833C21.0938 3.47292 21.0938 1.97917 20.1563 1.05208C19.2198 0.125 17.7125 0.125 14.6979 0.125H8.30209C5.28751 0.125 3.78021 0.125 2.84376 1.05208ZM7.50313 12.7917C7.50313 12.3542 7.86042 12 8.30209 12H14.6979C15.1396 12 15.4969 12.3542 15.4969 12.7917C15.4969 13.2292 15.1396 13.5833 14.6979 13.5833H8.30209C8.0912 13.5842 7.8886 13.5013 7.7388 13.3528C7.58899 13.2044 7.50423 13.0026 7.50313 12.7917Z" fill="#555555"/>
</svg>
