<svg width="13" height="12" viewBox="0 0 13 12" fill="none" xmlns="http://www.w3.org/2000/svg">
<path fill-rule="evenodd" clip-rule="evenodd" d="M8.90617 5.99997C8.90617 5.88394 8.86007 5.77266 8.77803 5.69061C8.69598 5.60856 8.5847 5.56247 8.46867 5.56247H2.06775L3.21167 4.58247C3.25533 4.54508 3.29121 4.49947 3.31724 4.44822C3.34328 4.39697 3.35896 4.3411 3.3634 4.28379C3.36785 4.22648 3.36096 4.16886 3.34313 4.11421C3.3253 4.05957 3.29688 4.00897 3.2595 3.9653C3.22212 3.92164 3.1765 3.88576 3.12525 3.85973C3.07401 3.83369 3.01813 3.81801 2.96082 3.81356C2.90352 3.80912 2.84589 3.81601 2.79125 3.83384C2.7366 3.85167 2.686 3.88008 2.64233 3.91747L0.600668 5.66747C0.55264 5.70854 0.514079 5.75953 0.48764 5.81693C0.4612 5.87433 0.44751 5.93677 0.44751 5.99997C0.44751 6.06316 0.4612 6.12561 0.48764 6.18301C0.514079 6.24041 0.55264 6.2914 0.600668 6.33247L2.64233 8.08247C2.73052 8.15797 2.84508 8.19534 2.96082 8.18637C3.07657 8.1774 3.184 8.12282 3.2595 8.03463C3.335 7.94645 3.37237 7.83189 3.3634 7.71614C3.35443 7.6004 3.29985 7.49297 3.21167 7.41747L2.06833 6.43747H8.46867C8.5847 6.43747 8.69598 6.39137 8.77803 6.30933C8.86007 6.22728 8.90617 6.116 8.90617 5.99997Z" fill="#555555"/>
<path d="M4.96875 3.66663C4.96875 4.07613 4.96875 4.28088 5.06733 4.42846C5.10979 4.49191 5.1643 4.54642 5.22775 4.58888C5.37533 4.68746 5.58008 4.68746 5.98958 4.68746H8.46875C8.81685 4.68746 9.15069 4.82574 9.39683 5.07188C9.64297 5.31802 9.78125 5.65186 9.78125 5.99996C9.78125 6.34806 9.64297 6.6819 9.39683 6.92804C9.15069 7.17418 8.81685 7.31246 8.46875 7.31246H5.98958C5.58008 7.31246 5.37533 7.31246 5.22775 7.41046C5.16424 7.45309 5.10973 7.50779 5.06733 7.57146C4.96875 7.71904 4.96875 7.92379 4.96875 8.33329C4.96875 9.98296 4.96875 10.8084 5.4815 11.3205C5.99367 11.8333 6.8185 11.8333 8.46817 11.8333H9.0515C10.7023 11.8333 11.5266 11.8333 12.0393 11.3205C12.5521 10.8084 12.5521 9.98296 12.5521 8.33329V3.66663C12.5521 2.01696 12.5521 1.19154 12.0393 0.679376C11.5266 0.166626 10.7017 0.166626 9.05208 0.166626H8.46875C6.8185 0.166626 5.99367 0.166626 5.4815 0.679376C4.96875 1.19154 4.96875 2.01696 4.96875 3.66663Z" fill="#555555"/>
</svg>
