<svg width="12" height="12" viewBox="0 0 12 12" fill="none" xmlns="http://www.w3.org/2000/svg">
<path fill-rule="evenodd" clip-rule="evenodd" d="M7.32936 0.255293C7.11352 0.166626 6.83936 0.166626 6.29161 0.166626C5.74386 0.166626 5.46969 0.166626 5.25386 0.255293C4.96654 0.373249 4.73783 0.600489 4.61802 0.887043C4.56319 1.01713 4.54219 1.16938 4.53344 1.39046C4.52955 1.55064 4.48487 1.70719 4.40362 1.8453C4.32237 1.9834 4.20723 2.0985 4.06911 2.17971C3.92837 2.25794 3.77017 2.29938 3.60916 2.30019C3.44815 2.30101 3.28954 2.26117 3.14802 2.18438C2.95086 2.08054 2.80794 2.02338 2.66677 2.00471C2.35793 1.96416 2.04557 2.04718 1.79761 2.23571C1.61211 2.37688 1.47502 2.61254 1.20144 3.08329C0.927273 3.55404 0.790773 3.78913 0.759857 4.01954C0.719023 4.32638 0.803023 4.63671 0.99319 4.88229C1.07952 4.99429 1.20144 5.08821 1.38986 5.20604C1.66811 5.37929 1.84661 5.67446 1.84661 5.99996C1.84661 6.32546 1.66811 6.62063 1.39044 6.79329C1.20144 6.91171 1.07952 7.00563 0.992607 7.11763C0.898738 7.23892 0.829839 7.37762 0.789889 7.52571C0.74994 7.67379 0.739732 7.82832 0.759857 7.98038C0.790773 8.21021 0.927273 8.44588 1.20144 8.91663C1.47561 9.38738 1.61211 9.62246 1.79761 9.76421C2.04494 9.95263 2.35761 10.0355 2.66677 9.99521C2.80794 9.97654 2.95086 9.91938 3.14802 9.81554C3.28961 9.73864 3.44833 9.69875 3.60946 9.69956C3.77058 9.70038 3.92889 9.74188 4.06969 9.82021C4.35319 9.98354 4.52119 10.284 4.53344 10.6095C4.54219 10.8311 4.56319 10.9828 4.61802 11.1129C4.73702 11.3987 4.96569 11.6262 5.25386 11.7446C5.46969 11.8333 5.74386 11.8333 6.29161 11.8333C6.83936 11.8333 7.11352 11.8333 7.32936 11.7446C7.61668 11.6267 7.84539 11.3994 7.96519 11.1129C8.02002 10.9828 8.04102 10.8311 8.04977 10.6095C8.06144 10.284 8.23002 9.98296 8.51411 9.82021C8.65484 9.74198 8.81304 9.70054 8.97405 9.69973C9.13506 9.69891 9.29367 9.73875 9.43519 9.81554C9.63236 9.91938 9.77527 9.97654 9.91644 9.99521C10.2256 10.036 10.5383 9.95263 10.7856 9.76421C10.9711 9.62304 11.1082 9.38738 11.3818 8.91663C11.6559 8.44588 11.7924 8.21079 11.8234 7.98038C11.8434 7.82829 11.8331 7.67373 11.793 7.52564C11.753 7.37756 11.684 7.23888 11.59 7.11763C11.5037 7.00563 11.3818 6.91171 11.1934 6.79388C10.9151 6.62063 10.7366 6.32546 10.7366 5.99996C10.7366 5.67446 10.9151 5.37929 11.1928 5.20663C11.3818 5.08821 11.5037 4.99429 11.5906 4.88229C11.6845 4.76099 11.7534 4.62229 11.7933 4.47421C11.8333 4.32613 11.8435 4.17159 11.8234 4.01954C11.7924 3.78971 11.6559 3.55404 11.3818 3.08329C11.1076 2.61254 10.9711 2.37746 10.7856 2.23571C10.5376 2.04718 10.2253 1.96416 9.91644 2.00471C9.77527 2.02338 9.63236 2.08054 9.43519 2.18438C9.2936 2.26128 9.13488 2.30117 8.97376 2.30035C8.81263 2.29954 8.65433 2.25804 8.51352 2.17971C8.3755 2.09843 8.26049 1.9833 8.17934 1.8452C8.0982 1.7071 8.0536 1.55059 8.04977 1.39046C8.04102 1.16879 8.02002 1.01713 7.96519 0.887043C7.9059 0.745138 7.81922 0.616307 7.71012 0.50791C7.60103 0.399512 7.47164 0.313671 7.32936 0.255293ZM6.29161 7.74996C7.26577 7.74996 8.05502 6.96654 8.05502 5.99996C8.05502 5.03338 7.26519 4.24996 6.29161 4.24996C5.31744 4.24996 4.52819 5.03338 4.52819 5.99996C4.52819 6.96654 5.31802 7.74996 6.29161 7.74996Z" fill="#555555"/>
</svg>
